<?xml version="1.0" encoding="UTF-8"?>
<svg id="Layer_1" data-name="Layer 1" xmlns="http://www.w3.org/2000/svg" viewBox="0 0 400 400">
  <path d="M225.132,317.398c.528,2.071.809,4.24.809,6.475,0,14.43-11.697,26.127-26.127,26.127s-26.127-11.697-26.127-26.127c0-2.434.333-4.79.955-7.026" fill="none" stroke="#4f46e5" stroke-linecap="round" stroke-linejoin="round" stroke-width="12"/>
  <line x1="98.774" y1="263.127" x2="303.003" y2="263.127" fill="none" stroke="#4f46e5" stroke-linecap="round" stroke-linejoin="round" stroke-width="12"/>
  <path d="M180.221,79.054v-8.301c0-11.461,9.291-20.752,20.752-20.752h0c11.461,0,20.752,9.291,20.752,20.752v8.301" fill="none" stroke="#4f46e5" stroke-linecap="round" stroke-linejoin="round" stroke-width="12"/>
  <path d="M95.322,315.964c-8.717,0-14.566-9.016-10.934-16.941,8.267-18.038,18.142-53.501,18.142-119.996,0-57.732,45.52-99.097,100.894-97.223,52.404,1.773,93.675,45.429,93.675,97.863v.072c0,66.045,9.866,101.24,18.204,119.189,3.692,7.948-2.126,17.035-10.89,17.035H95.322Z" fill="none" stroke="#191919" stroke-linecap="round" stroke-linejoin="round" stroke-width="12"/>
</svg>