<svg width="36" height="45" viewBox="0 0 36 45" fill="none" xmlns="http://www.w3.org/2000/svg">
<g clip-path="url(#clip0_185_15)">
<path d="M29.37 10.62H26.25V7.5C26.25 7.29 26.08 7.12 25.87 7.12H21.87C21.66 7.12 21.49 7.29 21.49 7.5V10.62H18.37C18.16 10.62 17.99 10.79 17.99 11V15C17.99 15.21 18.16 15.38 18.37 15.38H21.49V18.5C21.49 18.71 21.66 18.88 21.87 18.88H25.87C26.08 18.88 26.25 18.71 26.25 18.5V15.38H29.37C29.58 15.38 29.75 15.21 29.75 15V11C29.74 10.79 29.57 10.62 29.37 10.62ZM28.99 14.62H25.87C25.66 14.62 25.49 14.79 25.49 15V18.12H22.24V15C22.24 14.79 22.07 14.62 21.86 14.62H18.74V11.37H21.86C22.07 11.37 22.24 11.2 22.24 10.99V7.87H25.49V11C25.49 11.21 25.66 11.38 25.87 11.38H28.99V14.62Z" fill="#FEFEFE"/>
<path d="M23.87 3.62C18.7 3.62 14.49 7.83 14.49 13C14.49 18.17 18.7 22.38 23.87 22.38C29.04 22.38 33.25 18.17 33.25 13C33.25 7.83 29.04 3.62 23.87 3.62ZM23.87 21.62C19.11 21.62 15.25 17.75 15.25 13C15.25 8.25 19.12 4.38 23.87 4.38C28.62 4.38 32.5 8.25 32.5 13C32.5 17.75 28.62 21.62 23.87 21.62Z" fill="#FEFEFE"/>
<path d="M11.32 13.93L13.05 12.93C13.23 12.83 13.29 12.6 13.19 12.42L9.19001 5.49001C9.14001 5.40001 9.06001 5.34001 8.97001 5.31001C8.87001 5.29001 8.77001 5.30001 8.69001 5.35001L6.96001 6.35001C5.02001 7.47001 3.64001 9.27001 3.06001 11.43C2.48001 13.59 2.78001 15.85 3.90001 17.79L9.90001 28.18C11.02 30.12 12.82 31.5 14.98 32.08C15.7 32.27 16.43 32.37 17.16 32.37C18.61 32.37 20.04 31.99 21.33 31.24L23.06 30.24C23.24 30.14 23.3 29.91 23.2 29.73L19.2 22.8C19.15 22.71 19.07 22.65 18.97 22.63C18.87 22.61 18.77 22.62 18.69 22.67L16.96 23.67C16.35 24.02 15.65 24.11 14.97 23.93C14.29 23.75 13.73 23.31 13.38 22.71L10.38 17.51C10.03 16.9 9.94001 16.2 10.12 15.52C10.3 14.84 10.72 14.28 11.32 13.93ZM8.73001 6.19001L12.35 12.47L11.27 13.09L9.46001 9.95001L7.65001 6.81001L8.73001 6.19001ZM18.73 23.51L22.35 29.79L21.27 30.41L19.46 27.27L17.65 24.13L18.73 23.51ZM9.71001 17.89L12.71 23.09C13.58 24.59 15.43 25.18 16.99 24.49L20.62 30.77C18.93 31.64 17.01 31.86 15.17 31.36C13.2 30.83 11.56 29.57 10.54 27.81L4.54001 17.42C3.52001 15.66 3.25001 13.6 3.78001 11.63C4.27001 9.78001 5.42001 8.23001 7.02001 7.20001L10.65 13.48C10.03 13.93 9.59001 14.58 9.39001 15.32C9.14001 16.2 9.26001 17.11 9.71001 17.89Z" fill="#FEFEFE"/>
</g>
<defs>
<clipPath id="clip0_185_15">
<rect width="36" height="45" fill="white"/>
</clipPath>
</defs>
</svg>
